<mxfile host="65bd71144e">
    <diagram id="6Wyljek8oZNwAUY-Scfg" name="Page-1">
        <mxGraphModel dx="3437" dy="-51" grid="0" gridSize="10" guides="1" tooltips="1" connect="1" arrows="1" fold="1" page="1" pageScale="1" pageWidth="850" pageHeight="1100" background="#ffffff" math="0" shadow="0">
            <root>
                <mxCell id="0"/>
                <mxCell id="1" parent="0"/>
                <mxCell id="2" value="" style="ellipse;html=1;shape=startState;fillColor=#000000;strokeColor=#ff0000;" vertex="1" parent="1">
                    <mxGeometry x="-1040.1499999999999" y="1324" width="30" height="30" as="geometry"/>
                </mxCell>
                <mxCell id="3" value="" style="edgeStyle=orthogonalEdgeStyle;html=1;verticalAlign=bottom;endArrow=open;endSize=8;strokeColor=#ff0000;rounded=0;" edge="1" parent="1" source="2">
                    <mxGeometry relative="1" as="geometry">
                        <mxPoint x="-1025.15" y="1414" as="targetPoint"/>
                    </mxGeometry>
                </mxCell>
                <mxCell id="4" style="edgeStyle=orthogonalEdgeStyle;rounded=0;orthogonalLoop=1;jettySize=auto;html=1;exitX=0.5;exitY=1;exitDx=0;exitDy=0;" edge="1" parent="1">
                    <mxGeometry relative="1" as="geometry">
                        <mxPoint x="-1025.15" y="1464" as="sourcePoint"/>
                        <mxPoint x="-1025.15" y="1464" as="targetPoint"/>
                    </mxGeometry>
                </mxCell>
                <mxCell id="5" value="Display public timeline" style="rounded=1;whiteSpace=wrap;html=1;arcSize=40;fontColor=#000000;fillColor=#ffffc0;strokeColor=#ff0000;" vertex="1" parent="1">
                    <mxGeometry x="-1085.15" y="1414" width="120" height="40" as="geometry"/>
                </mxCell>
                <mxCell id="6" value="" style="edgeStyle=orthogonalEdgeStyle;html=1;verticalAlign=bottom;endArrow=open;endSize=8;strokeColor=#ff0000;rounded=0;exitX=0.5;exitY=1;exitDx=0;exitDy=0;" edge="1" parent="1" source="5">
                    <mxGeometry relative="1" as="geometry">
                        <mxPoint x="-1025.15" y="1494" as="targetPoint"/>
                        <Array as="points">
                            <mxPoint x="-1025.1499999999999" y="1474"/>
                            <mxPoint x="-1025.1499999999999" y="1474"/>
                        </Array>
                    </mxGeometry>
                </mxCell>
                <mxCell id="7" style="edgeStyle=orthogonalEdgeStyle;rounded=0;orthogonalLoop=1;jettySize=auto;html=1;entryX=0.5;entryY=0;entryDx=0;entryDy=0;strokeColor=#FF0000;" edge="1" parent="1" source="8" target="10">
                    <mxGeometry relative="1" as="geometry"/>
                </mxCell>
                <mxCell id="8" value="Succesfull?&lt;br&gt;" style="rhombus;whiteSpace=wrap;html=1;fontColor=#000000;fillColor=#ffffc0;strokeColor=#ff0000;" vertex="1" parent="1">
                    <mxGeometry x="-1070.15" y="1594" width="90" height="40" as="geometry"/>
                </mxCell>
                <mxCell id="9" value="no" style="edgeStyle=orthogonalEdgeStyle;html=1;align=left;verticalAlign=bottom;endArrow=open;endSize=8;strokeColor=#ff0000;rounded=0;entryX=1;entryY=0.5;entryDx=0;entryDy=0;labelBackgroundColor=none;fontColor=#000000;" edge="1" parent="1" source="8" target="5">
                    <mxGeometry x="-1" relative="1" as="geometry">
                        <mxPoint x="-890.1499999999999" y="1644" as="targetPoint"/>
                        <Array as="points">
                            <mxPoint x="-919.6499999999999" y="1614"/>
                            <mxPoint x="-919.6499999999999" y="1434"/>
                        </Array>
                    </mxGeometry>
                </mxCell>
                <mxCell id="10" value="Navigationbar changes.&lt;br&gt;CheepBox appear.&lt;br&gt;Cheeps get a follow/unfollow button." style="rounded=1;whiteSpace=wrap;html=1;arcSize=36;fontColor=#000000;fillColor=#ffffc0;strokeColor=#ff0000;" vertex="1" parent="1">
                    <mxGeometry x="-1098.9" y="1684" width="147.5" height="72" as="geometry"/>
                </mxCell>
                <mxCell id="11" value="" style="edgeStyle=orthogonalEdgeStyle;html=1;verticalAlign=bottom;endArrow=open;endSize=8;strokeColor=#ff0000;rounded=0;" edge="1" parent="1" source="10">
                    <mxGeometry relative="1" as="geometry">
                        <mxPoint x="-1025.15" y="1794.0000000000005" as="targetPoint"/>
                    </mxGeometry>
                </mxCell>
                <mxCell id="12" value="yes" style="edgeStyle=orthogonalEdgeStyle;html=1;align=left;verticalAlign=top;endArrow=open;endSize=8;strokeColor=#ff0000;rounded=0;entryX=0.5;entryY=0;entryDx=0;entryDy=0;exitX=0.5;exitY=1;exitDx=0;exitDy=0;labelBackgroundColor=none;fontColor=#000000;" edge="1" parent="1" source="8" target="10">
                    <mxGeometry x="-0.6" y="5" relative="1" as="geometry">
                        <mxPoint x="-810.1499999999999" y="1744" as="targetPoint"/>
                        <mxPoint x="-810.1499999999999" y="1684" as="sourcePoint"/>
                        <mxPoint as="offset"/>
                    </mxGeometry>
                </mxCell>
                <mxCell id="13" value="Login" style="rounded=1;whiteSpace=wrap;html=1;arcSize=40;fontColor=#000000;fillColor=#ffffc0;strokeColor=#ff0000;" vertex="1" parent="1">
                    <mxGeometry x="-1085.15" y="1494" width="120" height="40" as="geometry"/>
                </mxCell>
                <mxCell id="14" value="" style="edgeStyle=orthogonalEdgeStyle;html=1;verticalAlign=bottom;endArrow=open;endSize=8;strokeColor=#ff0000;rounded=0;" edge="1" parent="1" source="13">
                    <mxGeometry relative="1" as="geometry">
                        <mxPoint x="-1025.15" y="1594" as="targetPoint"/>
                    </mxGeometry>
                </mxCell>
                <mxCell id="15" value="" style="ellipse;html=1;shape=endState;fillColor=#000000;strokeColor=#ff0000;" vertex="1" parent="1">
                    <mxGeometry x="-1040.1499999999999" y="1794" width="30" height="30" as="geometry"/>
                </mxCell>
                <mxCell id="16" value="&lt;font color=&quot;#000000&quot; style=&quot;font-size: 19px;&quot;&gt;Login&lt;/font&gt;" style="text;html=1;strokeColor=none;fillColor=none;align=center;verticalAlign=middle;whiteSpace=wrap;rounded=0;" vertex="1" parent="1">
                    <mxGeometry x="-1085.15" y="1254" width="120" height="30" as="geometry"/>
                </mxCell>
                <mxCell id="17" value="" style="ellipse;html=1;shape=startState;fillColor=#000000;strokeColor=#ff0000;" vertex="1" parent="1">
                    <mxGeometry x="-1322.9" y="1324" width="30" height="30" as="geometry"/>
                </mxCell>
                <mxCell id="18" value="" style="edgeStyle=orthogonalEdgeStyle;html=1;verticalAlign=bottom;endArrow=open;endSize=8;strokeColor=#ff0000;rounded=0;" edge="1" parent="1" source="17">
                    <mxGeometry relative="1" as="geometry">
                        <mxPoint x="-1307.9" y="1414" as="targetPoint"/>
                    </mxGeometry>
                </mxCell>
                <mxCell id="19" style="edgeStyle=orthogonalEdgeStyle;rounded=0;orthogonalLoop=1;jettySize=auto;html=1;exitX=0.5;exitY=1;exitDx=0;exitDy=0;" edge="1" parent="1">
                    <mxGeometry relative="1" as="geometry">
                        <mxPoint x="-1307.9" y="1464" as="sourcePoint"/>
                        <mxPoint x="-1307.9" y="1464" as="targetPoint"/>
                    </mxGeometry>
                </mxCell>
                <mxCell id="20" value="Display userpage" style="rounded=1;whiteSpace=wrap;html=1;arcSize=40;fontColor=#000000;fillColor=#ffffc0;strokeColor=#ff0000;" vertex="1" parent="1">
                    <mxGeometry x="-1367.9" y="1414" width="120" height="40" as="geometry"/>
                </mxCell>
                <mxCell id="21" value="" style="edgeStyle=orthogonalEdgeStyle;html=1;verticalAlign=bottom;endArrow=open;endSize=8;strokeColor=#ff0000;rounded=0;exitX=0.5;exitY=1;exitDx=0;exitDy=0;" edge="1" parent="1" source="20">
                    <mxGeometry relative="1" as="geometry">
                        <mxPoint x="-1308.65" y="1484" as="targetPoint"/>
                        <Array as="points">
                            <mxPoint x="-1307.9" y="1474"/>
                            <mxPoint x="-1307.9" y="1474"/>
                        </Array>
                    </mxGeometry>
                </mxCell>
                <mxCell id="22" value="Press the red Forget Me button" style="rounded=1;whiteSpace=wrap;html=1;arcSize=40;fontColor=#000000;fillColor=#ffffc0;strokeColor=#ff0000;" vertex="1" parent="1">
                    <mxGeometry x="-1367.9" y="1484" width="120" height="40" as="geometry"/>
                </mxCell>
                <mxCell id="23" value="" style="edgeStyle=orthogonalEdgeStyle;html=1;verticalAlign=bottom;endArrow=open;endSize=8;strokeColor=#ff0000;rounded=0;entryX=0.5;entryY=0;entryDx=0;entryDy=0;" edge="1" parent="1" source="22">
                    <mxGeometry relative="1" as="geometry">
                        <mxPoint x="-1307.9" y="1562" as="targetPoint"/>
                    </mxGeometry>
                </mxCell>
                <mxCell id="24" value="&lt;font color=&quot;#000000&quot; style=&quot;font-size: 19px;&quot;&gt;Profile deletion&lt;/font&gt;" style="text;html=1;strokeColor=none;fillColor=none;align=center;verticalAlign=middle;whiteSpace=wrap;rounded=0;" vertex="1" parent="1">
                    <mxGeometry x="-1366.65" y="1254" width="120" height="30" as="geometry"/>
                </mxCell>
                <mxCell id="25" value="Press confirm on alert box" style="rounded=1;whiteSpace=wrap;html=1;arcSize=40;fontColor=#000000;fillColor=#ffffc0;strokeColor=#ff0000;" vertex="1" parent="1">
                    <mxGeometry x="-1367.9" y="1562" width="120" height="40" as="geometry"/>
                </mxCell>
                <mxCell id="26" value="" style="edgeStyle=orthogonalEdgeStyle;html=1;verticalAlign=bottom;endArrow=open;endSize=8;strokeColor=#ff0000;rounded=0;" edge="1" parent="1" source="25">
                    <mxGeometry relative="1" as="geometry">
                        <mxPoint x="-1307.9" y="1662" as="targetPoint"/>
                    </mxGeometry>
                </mxCell>
                <mxCell id="27" value="Condition" style="rhombus;whiteSpace=wrap;html=1;fontColor=#000000;fillColor=#ffffc0;strokeColor=#ff0000;" vertex="1" parent="1">
                    <mxGeometry x="-1348.65" y="1661" width="80" height="40" as="geometry"/>
                </mxCell>
                <mxCell id="28" value="no" style="edgeStyle=orthogonalEdgeStyle;html=1;align=left;verticalAlign=bottom;endArrow=open;endSize=8;strokeColor=#ff0000;rounded=0;entryX=1;entryY=0.5;entryDx=0;entryDy=0;labelBackgroundColor=none;fontColor=#000000;" edge="1" parent="1" source="27" target="20">
                    <mxGeometry x="-1" relative="1" as="geometry">
                        <mxPoint x="-1168.65" y="1681" as="targetPoint"/>
                        <Array as="points">
                            <mxPoint x="-1171.65" y="1681"/>
                            <mxPoint x="-1171.65" y="1434"/>
                        </Array>
                    </mxGeometry>
                </mxCell>
                <mxCell id="29" value="yes" style="edgeStyle=orthogonalEdgeStyle;html=1;align=left;verticalAlign=top;endArrow=open;endSize=8;strokeColor=#ff0000;rounded=0;labelBackgroundColor=none;fontColor=#000000;" edge="1" parent="1" source="27">
                    <mxGeometry x="-1" relative="1" as="geometry">
                        <mxPoint x="-1308.65" y="1761" as="targetPoint"/>
                    </mxGeometry>
                </mxCell>
                <mxCell id="30" value="Display public timeline&lt;br&gt;Navigation bar changes to be logged out" style="rounded=1;whiteSpace=wrap;html=1;arcSize=40;fontColor=#000000;fillColor=#ffffc0;strokeColor=#ff0000;" vertex="1" parent="1">
                    <mxGeometry x="-1366.65" y="1759" width="120" height="79" as="geometry"/>
                </mxCell>
                <mxCell id="31" value="" style="edgeStyle=orthogonalEdgeStyle;html=1;verticalAlign=bottom;endArrow=open;endSize=8;strokeColor=#ff0000;rounded=0;" edge="1" parent="1">
                    <mxGeometry relative="1" as="geometry">
                        <mxPoint x="-1306.65" y="1897.9999999999995" as="targetPoint"/>
                        <mxPoint x="-1306.65" y="1839.0000000000005" as="sourcePoint"/>
                    </mxGeometry>
                </mxCell>
                <mxCell id="32" value="" style="ellipse;html=1;shape=endState;fillColor=#000000;strokeColor=#ff0000;" vertex="1" parent="1">
                    <mxGeometry x="-1321.65" y="1898" width="30" height="30" as="geometry"/>
                </mxCell>
                <mxCell id="33" value="" style="ellipse;html=1;shape=startState;fillColor=#000000;strokeColor=#ff0000;" vertex="1" parent="1">
                    <mxGeometry x="-1572.88" y="1324" width="30" height="30" as="geometry"/>
                </mxCell>
                <mxCell id="34" value="" style="edgeStyle=orthogonalEdgeStyle;html=1;verticalAlign=bottom;endArrow=open;endSize=8;strokeColor=#ff0000;rounded=0;" edge="1" parent="1" source="33">
                    <mxGeometry relative="1" as="geometry">
                        <mxPoint x="-1557.88" y="1414" as="targetPoint"/>
                    </mxGeometry>
                </mxCell>
                <mxCell id="35" style="edgeStyle=orthogonalEdgeStyle;rounded=0;orthogonalLoop=1;jettySize=auto;html=1;exitX=0.5;exitY=1;exitDx=0;exitDy=0;" edge="1" parent="1">
                    <mxGeometry relative="1" as="geometry">
                        <mxPoint x="-1557.88" y="1464" as="sourcePoint"/>
                        <mxPoint x="-1557.88" y="1464" as="targetPoint"/>
                    </mxGeometry>
                </mxCell>
                <mxCell id="36" value="&lt;font color=&quot;#000000&quot; style=&quot;font-size: 19px;&quot;&gt;UnAuthorized user experience&lt;/font&gt;" style="text;html=1;strokeColor=none;fillColor=none;align=center;verticalAlign=middle;whiteSpace=wrap;rounded=0;" vertex="1" parent="1">
                    <mxGeometry x="-1624.38" y="1254" width="133" height="30" as="geometry"/>
                </mxCell>
                <mxCell id="37" value="Display public timeline" style="rounded=1;whiteSpace=wrap;html=1;arcSize=40;fontColor=#000000;fillColor=#ffffc0;strokeColor=#ff0000;" vertex="1" parent="1">
                    <mxGeometry x="-1617.88" y="1414" width="120" height="40" as="geometry"/>
                </mxCell>
                <mxCell id="38" value="" style="edgeStyle=orthogonalEdgeStyle;html=1;verticalAlign=bottom;endArrow=open;endSize=8;strokeColor=#ff0000;" edge="1" parent="1" source="37">
                    <mxGeometry relative="1" as="geometry">
                        <mxPoint x="-1557.88" y="1514" as="targetPoint"/>
                    </mxGeometry>
                </mxCell>
                <mxCell id="39" value="See all cheeps" style="rounded=1;whiteSpace=wrap;html=1;arcSize=40;fontColor=#000000;fillColor=#ffffc0;strokeColor=#ff0000;" vertex="1" parent="1">
                    <mxGeometry x="-1617.88" y="1518" width="120" height="40" as="geometry"/>
                </mxCell>
                <mxCell id="40" value="" style="edgeStyle=orthogonalEdgeStyle;html=1;verticalAlign=bottom;endArrow=open;endSize=8;strokeColor=#ff0000;" edge="1" parent="1" source="39">
                    <mxGeometry relative="1" as="geometry">
                        <mxPoint x="-1557.88" y="1617.9999999999995" as="targetPoint"/>
                    </mxGeometry>
                </mxCell>
                <mxCell id="41" value="Sees an author and presses to see all their cheeps" style="rounded=1;whiteSpace=wrap;html=1;arcSize=40;fontColor=#000000;fillColor=#ffffc0;strokeColor=#ff0000;" vertex="1" parent="1">
                    <mxGeometry x="-1631" y="1621" width="146.25" height="40" as="geometry"/>
                </mxCell>
                <mxCell id="42" value="" style="edgeStyle=orthogonalEdgeStyle;html=1;verticalAlign=bottom;endArrow=open;endSize=8;strokeColor=#ff0000;" edge="1" parent="1" source="41">
                    <mxGeometry relative="1" as="geometry">
                        <mxPoint x="-1557.88" y="1724.0000000000005" as="targetPoint"/>
                    </mxGeometry>
                </mxCell>
                <mxCell id="43" value="&lt;font color=&quot;#000000&quot;&gt;Successfull?&lt;/font&gt;" style="rhombus;whiteSpace=wrap;html=1;fillColor=#ffffc0;strokeColor=#ff0000;" vertex="1" parent="1">
                    <mxGeometry x="-1603.63" y="1724" width="95" height="44" as="geometry"/>
                </mxCell>
                <mxCell id="44" value="no" style="edgeStyle=orthogonalEdgeStyle;html=1;align=left;verticalAlign=bottom;endArrow=open;endSize=8;strokeColor=#ff0000;entryX=1;entryY=0.5;entryDx=0;entryDy=0;labelBackgroundColor=none;fontColor=#000000;" edge="1" parent="1" source="43" target="37">
                    <mxGeometry x="-1" relative="1" as="geometry">
                        <mxPoint x="-1416.63" y="1744" as="targetPoint"/>
                        <Array as="points">
                            <mxPoint x="-1441.63" y="1746"/>
                            <mxPoint x="-1441.63" y="1434"/>
                        </Array>
                    </mxGeometry>
                </mxCell>
                <mxCell id="45" value="&lt;font style=&quot;&quot; color=&quot;#000000&quot;&gt;yes&lt;/font&gt;" style="edgeStyle=orthogonalEdgeStyle;html=1;align=left;verticalAlign=top;endArrow=open;endSize=8;strokeColor=#ff0000;labelBackgroundColor=none;" edge="1" parent="1" source="43">
                    <mxGeometry x="-1" relative="1" as="geometry">
                        <mxPoint x="-1556.63" y="1824.0000000000005" as="targetPoint"/>
                    </mxGeometry>
                </mxCell>
                <mxCell id="46" value="Show the users timeline" style="rounded=1;whiteSpace=wrap;html=1;arcSize=40;fontColor=#000000;fillColor=#ffffc0;strokeColor=#ff0000;" vertex="1" parent="1">
                    <mxGeometry x="-1616.13" y="1824" width="120" height="40" as="geometry"/>
                </mxCell>
                <mxCell id="47" value="" style="edgeStyle=orthogonalEdgeStyle;html=1;verticalAlign=bottom;endArrow=open;endSize=8;strokeColor=#ff0000;fontColor=#000000;" edge="1" parent="1" source="46">
                    <mxGeometry relative="1" as="geometry">
                        <mxPoint x="-1556.13" y="1924.0000000000005" as="targetPoint"/>
                    </mxGeometry>
                </mxCell>
                <mxCell id="48" value="" style="ellipse;html=1;shape=endState;fillColor=#000000;strokeColor=#ff0000;fontColor=#000000;" vertex="1" parent="1">
                    <mxGeometry x="-1571.13" y="1924" width="30" height="30" as="geometry"/>
                </mxCell>
                <mxCell id="49" value="" style="rounded=0;whiteSpace=wrap;html=1;fillColor=none;" vertex="1" parent="1">
                    <mxGeometry x="-1666" y="1194" width="784" height="823" as="geometry"/>
                </mxCell>
            </root>
        </mxGraphModel>
    </diagram>
</mxfile>